<?xml version="1.0" encoding="utf-8"?>
<!-- Generator: Adobe Illustrator 29.6.1, SVG Export Plug-In . SVG Version: 9.03 Build 0)  -->
<svg version="1.1" id="Layer_1" xmlns="http://www.w3.org/2000/svg" xmlns:xlink="http://www.w3.org/1999/xlink" x="0px" y="0px"
	 viewBox="0 0 1500 1500" style="enable-background:new 0 0 1500 1500;" xml:space="preserve">
<style type="text/css">
	.st0{fill:url(#SVGID_1_);}
	.st1{fill:#FFFFFF;}
	.st2{fill:#8657F3;}
	.st3{fill:#1E1E1E;}
</style>
<linearGradient id="SVGID_1_" gradientUnits="userSpaceOnUse" x1="-68.5281" y1="747.8712" x2="1542.6971" y2="747.8712">
	<stop  offset="0" style="stop-color:#8657F3"/>
	<stop  offset="0.9998" style="stop-color:#7944F2"/>
</linearGradient>
<rect x="-68.53" y="-53.87" class="st0" width="1611.23" height="1603.49"/>
<path class="st1" d="M1007.98,328.2H848.21H731.88h-29.59c-27.42,0-52.28,16.16-63.4,41.22L468.76,752.55
	c-8.63,19.44,5.6,41.32,26.86,41.32h180.8L562.4,1122.49c-14.11,40.66,40.91,68.52,65.33,33.08l330.11-478.99
	c11.23-16.29-0.42-38.49-20.21-38.51l-182.68-0.17l55.76-124.58c6.9-15.43,22.23-25.36,39.13-25.36h98.57
	c17.25,0,32.88-10.17,39.87-25.94l43.28-97.61C1039.12,347.39,1026.63,328.2,1007.98,328.2z"/>
</svg>
